OpenSim_Sub02_CSStiffKnee_LCS.mot
version=1
nRows=71
nColumns=11
inDegrees=no
endheader
time	Bot_Shank	2nd_Bot_Shank	2nd_Top_Shank	Top_Shank	Bot_Thigh	Med_Thigh	Top_Thigh	BNOx	BNOy	BNOZ
17.22000000	9163.59903358	9570.95460075	11231.83312431	10804.84654474	12659.85212581	13456.66307157	13447.46474935	209.82965941	-75.38387816	275.05519467
17.23000000	9165.92674552	9571.66868650	11231.77324732	10808.13745446	12671.90768024	13502.06699061	13485.09998049	210.02951377	-75.10157774	280.94771080
17.24000000	9167.28742534	9572.30538322	11231.72766639	10811.99800073	12684.09587218	13545.58714007	13523.07443188	209.99912393	-74.81114926	280.05622604
17.25000000	9167.36023810	9572.82102146	11231.70689368	10815.68377953	12695.99780248	13584.87608648	13560.04260431	209.74223830	-74.52598597	271.94569434
17.26000000	9165.82434886	9573.17193178	11231.72144136	10818.45038685	12707.19457200	13617.58639632	13594.65899861	209.26260527	-74.25948112	256.18106967
17.27000000	9162.35892269	9573.31444473	11231.78182158	10819.55341865	12717.26728159	13641.37063610	13625.57811560	208.56397323	-74.02502796	232.32730598
17.28000000	9156.64312465	9573.20489087	11231.89854652	10818.24847090	12725.79703210	13653.88137232	13651.45445609	207.65009056	-73.83601976	199.94935723
17.29000000	9148.37087053	9572.80099750	11232.08126589	10813.80206060	12732.37504038	13652.83976867	13670.97111772	206.52525476	-73.70558630	158.65036415
17.30000000	9137.80951021	9572.11479021	11232.30610212	10805.90525911	12736.98578266	13638.63370492	13683.92289996	205.21510891	-73.63661559	109.51797806
17.31000000	9125.97130481	9571.22882994	11232.50562446	10794.80064897	12740.12459302	13615.11521933	13691.54874220	203.77302484	-73.61869122	55.56828210
17.32000000	9113.91829910	9570.23039168	11232.60949147	10780.76767111	12742.32094703	13586.36786569	13695.18409816	202.25422753	-73.64050759	-0.05376026
17.33000000	9102.71253786	9569.20675039	11232.54736167	10764.08576650	12744.10432025	13556.47519779	13696.16442154	200.71394194	-73.69075912	-54.20318555
17.34000000	9093.41606586	9568.24518103	11232.24889359	10745.03437607	12746.00418826	13529.52076944	13695.82516606	199.20739306	-73.75814023	-103.73503032
17.35000000	9087.09092787	9567.43295857	11231.64374577	10723.89294077	12748.55002662	13509.58813442	13695.50178544	197.78980586	-73.83134531	-145.50433108
17.36000000	9084.79022833	9566.85673684	11230.66226018	10700.94169246	12752.26713050	13500.73041847	13696.52112692	196.51605234	-73.89912069	-176.38960700
17.37000000	9086.87535377	9566.55511178	11229.28765636	10676.52205487	12757.35735581	13504.64651646	13699.54415299	195.41369375	-73.95422792	-195.08623677
17.38000000	9092.53518089	9566.48521793	11227.59278495	10651.07917631	12763.47430652	13519.04473856	13704.10310523	194.46399779	-73.99623466	-203.36930210
17.39000000	9100.84501086	9566.59629902	11225.65917876	10625.06825236	12770.21847996	13541.24684581	13709.62089132	193.64374791	-74.02536785	-203.31220104
17.40000000	9110.88014488	9566.83759880	11223.56837061	10598.94447862	12777.19037352	13568.57459921	13715.52041898	192.92972758	-74.04185445	-196.98833163
17.41000000	9121.71588414	9567.15836100	11221.40189329	10573.16305068	12783.99048454	13598.34975980	13721.22459589	192.29872023	-74.04592139	-186.47109191
17.42000000	9132.42752981	9567.50782938	11219.24127962	10548.17916414	12790.21931039	13627.89408858	13726.15632975	191.72750933	-74.03779562	-173.83387994
17.43000000	9142.09038309	9567.83524767	11217.16806239	10524.44801460	12795.47734842	13654.52934659	13729.73852826	191.19287833	-74.01770408	-161.15009375
17.44000000	9149.79303945	9568.09057327	11215.26388396	10502.42032716	12799.37247363	13675.61615940	13731.40701075	190.67189214	-73.98590000	-150.46627351
17.45000000	9155.14091010	9568.25150711	11213.61464476	10482.37303691	12801.79936604	13690.02601270	13731.09953622	190.15255714	-73.94365823	-142.78485912
17.46000000	9158.41076813	9568.33178989	11212.31177668	10464.35731951	12803.02527555	13698.59305285	13729.40590111	189.63709309	-73.89358076	-137.75196735
17.47000000	9159.92425486	9568.34757096	11211.44708128	10448.40926276	12803.34235157	13702.28259415	13726.95947859	189.12866966	-73.83835829	-134.92306958
17.48000000	9160.00301164	9568.31499963	11211.11236013	10434.56495446	12803.04274347	13702.05995086	13724.39364184	188.63045651	-73.78068150	-133.85363721
17.49000000	9158.96867981	9568.25022523	11211.39941477	10422.86048240	12802.41860065	13698.89043729	13722.34176405	188.14562330	-73.72324108	-134.09914162
17.50000000	9157.14290071	9568.16939710	11212.40004677	10413.33193438	12801.76207251	13693.73936771	13721.43721839	187.67733970	-73.66872772	-135.21505422
17.51000000	9154.84731566	9568.08866455	11214.20605769	10406.01539818	12801.36530842	13687.57205641	13722.31337804	187.22877537	-73.61983211	-136.75684640
17.52000000	9152.40356600	9568.02417691	11216.90924909	10400.94696160	12801.52045778	13681.35381767	13725.60361619	186.80309997	-73.57924493	-138.27998955
17.53000000	9150.13021203	9567.99179392	11220.59399857	10398.15159599	12802.51571474	13676.03830261	13731.92836260	186.40329236	-73.54951958	-139.34549494
17.54000000	9148.22603794	9567.99611762	11225.05607787	10397.22212043	12804.48551336	13672.12575652	13741.40487193	186.02491382	-73.52787195	-139.72973663
17.55000000	9146.73423461	9568.02712589	11229.71634947	10397.18997296	12807.36454795	13669.52743451	13753.49675657	185.65388989	-73.50458434	-139.48885257
17.56000000	9145.68759433	9568.07381927	11233.97062001	10397.04907358	12811.07416385	13668.11522847	13767.62394490	185.27550219	-73.46947567	-138.69767779
17.57000000	9145.11890940	9568.12519830	11237.21469615	10395.79334230	12815.53570641	13667.76103030	13783.20636529	184.87503230	-73.41236486	-137.43104733
17.58000000	9145.06097212	9568.17026349	11238.84438454	10392.41669912	12820.67052099	13668.33673188	13799.66394613	184.43776181	-73.32307083	-135.76379621
17.59000000	9145.54657478	9568.19801539	11238.25549186	10385.91306403	12826.39995294	13669.71422512	13816.41661578	183.94897232	-73.19141249	-133.77075948
17.60000000	9146.60850969	9568.19745453	11234.84382474	10375.27635705	12832.64534760	13671.76540191	13832.88430264	183.39394543	-73.00720876	-131.52677217
17.61000000	9148.27956915	9568.15758143	11228.00518985	10359.50049815	12839.32805033	13674.36215416	13848.48693507	182.75796272	-72.76027855	-129.10666931
17.62000000	9150.59254544	9568.06739662	11217.13539384	10337.57940736	12846.36940647	13677.37637374	13862.64444146	182.02630580	-72.44044080	-126.58528593
17.63000000	9153.56605896	9567.91639396	11201.66460859	10308.57547800	12853.68469175	13680.67522714	13874.78116705	181.18511194	-72.03786283	-124.03647259
17.64000000	9156.89277585	9567.70541328	11181.81340606	10273.12599016	12861.04958023	13684.01719614	13884.42304536	180.24019953	-71.55072578	-121.51143659
17.65000000	9159.93940808	9567.44664046	11158.59275827	10233.44311066	12868.10014433	13687.05207783	13891.19759810	179.21706800	-70.98522454	-119.03874202
17.66000000	9162.05849566	9567.15275469	11133.04800249	10191.80747966	12874.46638682	13689.42494389	13894.73676389	178.14207249	-70.34790246	-116.64596847
17.67000000	9162.60257863	9566.83643514	11106.22447595	10150.49973733	12879.77831051	13690.78086598	13894.67248135	177.04156815	-69.64530285	-114.36069554
17.68000000	9160.92419702	9566.51036098	11079.16751592	10111.80052382	12883.66591816	13690.76491579	13890.63668908	175.94191011	-68.88396905	-112.21050283
17.69000000	9156.37589084	9566.18721141	11052.92245966	10077.99047929	12885.75921256	13689.02216497	13882.26132570	174.86945352	-68.07044439	-110.22296992
17.70000000	9148.32702874	9565.87960166	11028.52850470	10051.32751830	12885.70103439	13685.20764033	13869.19337293	173.85005285	-67.21125442	-108.42512468
17.71000000	9136.80119124	9565.59766161	11006.78616766	10033.18609698	12883.63329729	13679.36337394	13851.66461355	172.89009924	-66.31223378	-106.82254599
17.72000000	9122.67180328	9565.34829256	10988.18591014	10023.79302776	12880.34622836	13672.03413143	13830.66650755	171.97070025	-65.37831957	-105.39294977
17.73000000	9106.86908634	9565.13818004	10973.19747225	10023.29842412	12876.67338259	13663.79827698	13807.24128546	171.07127369	-64.41438890	-104.11218983
17.74000000	9090.32326187	9564.97400956	10962.29059411	10031.85239954	12873.44831495	13655.23417474	13782.43117778	170.17123738	-63.42531889	-102.95611997
17.75000000	9073.96455135	9564.86246666	10955.93501583	10049.60506748	12871.50458042	13646.92018889	13757.27841504	169.25000913	-62.41598665	-101.90059398
17.76000000	9058.72317625	9564.81023685	10954.60047752	10076.70654141	12871.67573397	13639.43468358	13732.82522773	168.28700677	-61.39126929	-100.92146566
17.77000000	9045.52935804	9564.82400568	10958.75671928	10113.30693482	12874.79533060	13633.35602299	13710.11384639	167.26164810	-60.35604393	-99.99458882
17.78000000	9035.31331818	9564.91045865	10968.87348124	10159.55636117	12881.69692527	13629.26257127	13690.18650152	166.15335095	-59.31518769	-99.09581724
17.79000000	9028.98625256	9565.07603720	10985.40008674	10215.57586328	12893.19049559	13627.72227743	13674.06977069	164.94218597	-58.27381856	-98.20127996
17.80000000	9026.71973785	9565.31769366	11007.99215722	10280.35636186	12909.16944913	13628.89820069	13662.18172306	163.63360286	-57.24641873	-97.29780556
17.81000000	9027.72455916	9565.62005364	11035.27426730	10351.42070908	12928.33653646	13632.42743416	13654.14995387	162.26601960	-56.25963484	-96.38612174
17.82000000	9031.14729026	9565.96691898	11065.80208498	10426.19364362	12949.31493460	13637.91191973	13649.54922964	160.88005749	-55.34092649	-95.46788507
17.83000000	9036.13450496	9566.34209149	11098.13127830	10502.09990414	12970.72782055	13644.95359931	13647.95431689	159.51633785	-54.51775327	-94.54475217
17.84000000	9041.83277704	9566.72937297	11130.81751526	10576.56422933	12991.19837128	13653.15441480	13648.93998217	158.21548197	-53.81757480	-93.61837960
17.85000000	9047.38868029	9567.11256526	11162.41646389	10647.01135785	13009.34976382	13662.11630810	13652.08099200	157.01811118	-53.26785066	-92.69042397
17.86000000	9051.94878852	9567.47547017	11191.48379219	10710.86602838	13023.80517514	13671.44122110	13656.95211290	155.96484676	-52.89604046	-91.76254187
17.87000000	9054.65967549	9567.80188950	11216.57516820	10765.55297959	13033.18778225	13680.73109572	13663.12811140	155.09631003	-52.72960379	-90.83638987
17.88000000	9054.67483326	9568.07571369	11236.25645373	10808.51643219	13036.13220443	13689.58742943	13670.18366738	154.45285391	-52.79572485	-89.91371466
17.89000000	9051.68302128	9568.28768825	11249.88221024	10838.70793934	13032.15835544	13697.57733499	13677.68675626	154.05406656	-53.10027902	-89.00323215
17.90000000	9046.28031441	9568.44017855	11258.14389972	10857.63408735	13022.28678457	13704.20964063	13685.19398897	153.88433839	-53.61302174	-88.12547163
17.91000000	9039.15067490	9568.53667555	11261.86248346	10867.04895656	13007.68340060	13708.98752884	13692.26087562	153.92465039	-54.30020972	-87.30210670
17.92000000	9030.97806498	9568.58067019	11261.85892271	10868.70662730	12989.51411235	13711.41418211	13698.44292629	154.15598355	-55.12809966	-86.55481095
